<svg width="24" height="24" viewBox="0 0 24 24" fill="none" xmlns="http://www.w3.org/2000/svg">
<path d="M8.40002 6C9.22877 6 9.90002 5.32875 9.90002 4.5C9.90002 3.67125 9.22877 3 8.40002 3C7.57127 3 6.90002 3.67125 6.90002 4.5C6.90002 5.32875 7.57127 6 8.40002 6ZM8.40002 13.5C9.22877 13.5 9.90002 12.8288 9.90002 12C9.90002 11.1713 9.22877 10.5 8.40002 10.5C7.57127 10.5 6.90002 11.1713 6.90002 12C6.90002 12.8288 7.57127 13.5 8.40002 13.5ZM8.40002 21C9.22877 21 9.90002 20.3288 9.90002 19.5C9.90002 18.6713 9.22877 18 8.40002 18C7.57127 18 6.90002 18.6713 6.90002 19.5C6.90002 20.3288 7.57127 21 8.40002 21Z" fill="black"/>
<path d="M15.6 6C16.4288 6 17.1 5.32875 17.1 4.5C17.1 3.67125 16.4288 3 15.6 3C14.7713 3 14.1 3.67125 14.1 4.5C14.1 5.32875 14.7713 6 15.6 6ZM15.6 13.5C16.4288 13.5 17.1 12.8288 17.1 12C17.1 11.1713 16.4288 10.5 15.6 10.5C14.7713 10.5 14.1 11.1713 14.1 12C14.1 12.8288 14.7713 13.5 15.6 13.5ZM15.6 21C16.4288 21 17.1 20.3288 17.1 19.5C17.1 18.6713 16.4288 18 15.6 18C14.7713 18 14.1 18.6713 14.1 19.5C14.1 20.3288 14.7713 21 15.6 21Z" fill="black"/>
</svg>
