<svg width="24" height="24" viewBox="0 0 24 24" fill="none" xmlns="http://www.w3.org/2000/svg">
<path d="M21.042 8.51996C21.354 8.19071 21.5587 7.75721 21.5992 7.27721L21.6 7.26971C21.6015 7.24571 21.6022 7.21796 21.6022 7.19021C21.6022 6.71846 21.3862 6.29696 21.0472 6.02021L21.0442 6.01796L17.9827 2.95796C17.6527 2.64521 17.2177 2.44046 16.7362 2.40071L16.7287 2.39996C16.2322 2.40146 15.7867 2.61521 15.477 2.95571L15.4755 2.95721L2.39923 16.035V21.6007H7.96348L21.042 8.51996ZM16.92 3.71996L20.28 7.07996L17.376 9.97946L14.016 6.61946L16.92 3.71996ZM3.71998 20.28V17.004L12.9465 7.77596L16.224 11.052L6.99148 20.28H3.71998Z" fill="black"/>
</svg>
