<svg width="24" height="24" viewBox="0 0 24 24" fill="none" xmlns="http://www.w3.org/2000/svg">
<path d="M12.4575 1.65748C12.1853 1.44148 11.7998 1.44148 11.5275 1.65748L0.75 10.065L1.68 11.2507L3 10.215V19.5007C3 20.3287 3.672 21.0007 4.5 21.0007H19.5C20.328 21.0007 21 20.3287 21 19.5007V10.2232L22.32 11.2507L23.25 10.0732L12.4575 1.65748ZM13.5 19.5H10.5V13.5H13.5V19.5ZM15 19.5V13.5C15 12.672 14.328 12 13.5 12H10.5C9.672 12 9 12.672 9 13.5V19.5H4.5V9.04423L12 3.20398L19.5 9.05398V19.5015H15V19.5Z" fill="black"/>
</svg>
