<svg width="24" height="24" viewBox="0 0 24 24" fill="none" xmlns="http://www.w3.org/2000/svg">
<path d="M21.9375 5.06997C21.0938 4.22247 19.9455 3.74622 18.75 3.74622C17.5538 3.74622 16.4063 4.22247 15.5625 5.06997L16.6268 6.13572C17.3865 5.37522 18.4943 5.07972 19.5308 5.35572C20.5688 5.63547 21.3788 6.44547 21.6585 7.48347C21.936 8.52147 21.639 9.62772 20.88 10.3875L14.88 16.3875C14.1218 17.1472 13.0155 17.445 11.9783 17.1675C10.9418 16.8915 10.1303 16.0815 9.85201 15.0457C9.57376 14.0092 9.86851 12.9022 10.6275 12.1417L11.6858 11.0775L10.6275 10.0132L9.56326 11.0775C8.71576 11.922 8.23951 13.0695 8.23951 14.265C8.23951 15.4612 8.71576 16.6087 9.56326 17.4532C10.4115 18.291 11.5575 18.7575 12.7508 18.7507C13.9508 18.7552 15.105 18.2805 15.9533 17.4307L21.9533 11.4307C23.7038 9.66897 23.697 6.82272 21.9375 5.07072V5.06997ZM3.14401 18.6142C2.57776 18.0517 2.25976 17.2867 2.25976 16.4887C2.25976 15.6907 2.57776 14.925 3.14401 14.3625L9.14401 8.36247C9.70651 7.79622 10.4723 7.47822 11.2703 7.47822C12.0683 7.47822 12.8325 7.79622 13.3958 8.36247C13.9583 8.93022 14.2673 9.70047 14.2515 10.5C14.256 11.3017 13.9395 12.0705 13.374 12.6375L11.784 14.25L12.8483 15.3142L14.4383 13.7242C16.2008 11.9625 16.2008 9.10422 14.4383 7.34247C12.6765 5.57997 9.81826 5.57997 8.05576 7.34247L2.05576 13.3425C1.20751 14.187 0.72826 15.3345 0.72826 16.5345C0.72826 17.7307 1.20676 18.8805 2.05651 19.725C2.91001 20.5552 4.05901 21.0135 5.25076 20.9992C6.45301 21.0007 7.60726 20.5267 8.46076 19.6792L7.39501 18.615C6.83251 19.179 6.06751 19.4985 5.26951 19.4985C4.47151 19.4985 3.70576 19.1805 3.14326 18.615L3.14401 18.6142Z" fill="black"/>
</svg>
