<svg width="48" height="48" viewBox="0 0 48 48" fill="none" xmlns="http://www.w3.org/2000/svg">
<path fill-rule="evenodd" clip-rule="evenodd" d="M24 40C32.8366 40 40 32.8366 40 24C40 15.1634 32.8366 8 24 8C15.1634 8 8 15.1634 8 24C8 32.8366 15.1634 40 24 40ZM24 48C37.2548 48 48 37.2548 48 24C48 10.7452 37.2548 0 24 0C10.7452 0 0 10.7452 0 24C0 37.2548 10.7452 48 24 48Z" fill="#4DF2B7"/>
<path fill-rule="evenodd" clip-rule="evenodd" d="M21.1716 26.8284C19.6095 25.2663 19.6095 22.7337 21.1716 21.1716L35 7.34314L40.6569 13L26.8284 26.8284C25.2663 28.3905 22.7337 28.3905 21.1716 26.8284Z" fill="#4DF2B7"/>
</svg>
