<svg width="24" height="24" viewBox="0 0 24 24" fill="none" xmlns="http://www.w3.org/2000/svg">
<path d="M12 4.89L14.07 9.07425L14.4142 9.82425L15.1642 9.93675L19.7842 10.6043L16.5 13.83L15.9375 14.3775L16.0732 15.1275L16.8607 19.7258L12.7282 17.5575L12.0007 17.25L11.3032 17.6175L7.17074 19.755L7.92074 15.159L8.05649 14.4075L7.50074 13.83L4.18499 10.5675L9.55649 9.7875L9.90074 9.0375L12.0007 4.89H12ZM12 1.5L8.58749 8.41575L0.959991 9.516L6.47999 14.9018L5.17424 22.4993L12 18.915L18.8257 22.5008L17.52 14.9033L23.04 9.525L15.4125 8.415L12 1.50075V1.5Z" fill="black"/>
</svg>
