<svg width="24" height="24" viewBox="0 0 24 24" fill="none" xmlns="http://www.w3.org/2000/svg">
<path d="M11.958 2.25C9.32777 2.277 7.20602 4.41525 7.20602 7.05C7.20602 7.065 7.20602 7.08 7.20602 7.09425V7.092C7.23002 9.72525 9.36977 11.85 12.006 11.85C12.021 11.85 12.036 11.85 12.0503 11.85H12.048C14.6813 11.826 16.806 9.68625 16.806 7.05C16.806 7.035 16.806 7.02 16.806 7.00575V7.008C16.794 5.69775 16.2593 4.515 15.4005 3.65625C14.4833 2.8395 13.287 2.31825 11.9715 2.25075L11.958 2.25Z" fill="black"/>
<path d="M8.40601 13.344H15.606C18.9195 13.344 21.606 16.0305 21.606 19.344V21.744H2.40601V19.344C2.40601 16.0305 5.09251 13.344 8.40601 13.344Z" fill="black"/>
</svg>
