<svg width="24" height="24" viewBox="0 0 24 24" fill="none" xmlns="http://www.w3.org/2000/svg">
<path d="M12 11.85H12.0432C13.3161 11.8386 14.5323 11.322 15.4243 10.414C16.3164 9.50599 16.8112 8.28082 16.8 7.00797C16.789 5.74978 16.2844 4.54622 15.3948 3.65637C14.4413 2.81244 13.2296 2.31703 11.958 2.25117C10.6852 2.26258 9.46897 2.7791 8.57692 3.68713C7.68488 4.59515 7.19002 5.82033 7.20121 7.09317C7.2126 8.35851 7.72317 9.56815 8.62186 10.459C9.52054 11.3498 10.7346 11.8497 12 11.85ZM11.9256 3.80997C12.8111 3.86749 13.6536 4.2121 14.3256 4.79157C14.9078 5.38833 15.236 6.18751 15.2412 7.02117C15.2437 7.44872 15.1619 7.87257 15.0003 8.26842C14.8387 8.66427 14.6006 9.02435 14.2996 9.32801C13.9986 9.63168 13.6407 9.87296 13.2463 10.038C12.8519 10.2031 12.4288 10.2887 12.0012 10.29C11.1474 10.2875 10.3289 9.94914 9.72264 9.34801C9.11635 8.74688 8.77099 7.9313 8.76122 7.07757C8.75373 6.22645 9.08147 5.40656 9.6736 4.79512C10.2657 4.18368 11.0747 3.8298 11.9256 3.80997Z" fill="black"/>
<path d="M15.6012 13.35H8.40121C6.80992 13.35 5.28379 13.9821 4.15857 15.1073C3.03336 16.2326 2.40121 17.7587 2.40121 19.35V21.75H21.6012V19.35C21.6012 17.7587 20.9691 16.2326 19.8439 15.1073C18.7186 13.9821 17.1925 13.35 15.6012 13.35ZM20.0412 20.19H3.96122V19.35C3.96122 18.7669 4.07606 18.1895 4.29919 17.6509C4.52232 17.1122 4.84937 16.6227 5.26166 16.2104C5.67395 15.7981 6.16342 15.4711 6.7021 15.2479C7.24079 15.0248 7.81815 14.91 8.40121 14.91H15.6012C16.7788 14.91 17.9081 15.3778 18.7408 16.2104C19.5734 17.0431 20.0412 18.1724 20.0412 19.35V20.19Z" fill="black"/>
</svg>
